<mxfile host="app.diagrams.net" modified="2020-09-21T06:27:14.606Z" agent="5.0 (X11; Linux x86_64) AppleWebKit/537.36 (KHTML, like Gecko) Chrome/81.0.4044.138 Safari/537.36" etag="fSjDKAgj-hEX_BgiiDb-" version="13.7.3" type="github">
  <diagram id="_DAt8S-iEJt-oFlQI2zK" name="Page-1">
    <mxGraphModel dx="942" dy="621" grid="1" gridSize="10" guides="1" tooltips="1" connect="1" arrows="1" fold="1" page="1" pageScale="1" pageWidth="827" pageHeight="1169" math="0" shadow="0">
      <root>
        <mxCell id="0" />
        <mxCell id="1" parent="0" />
        <mxCell id="WJxX19RSTMBT1OiavVBI-55" value="" style="rounded=0;whiteSpace=wrap;html=1;fillColor=#d5e8d4;strokeColor=#82b366;" parent="1" vertex="1">
          <mxGeometry x="224.5" y="975" width="445.5" height="180" as="geometry" />
        </mxCell>
        <mxCell id="WJxX19RSTMBT1OiavVBI-25" style="edgeStyle=orthogonalEdgeStyle;rounded=0;orthogonalLoop=1;jettySize=auto;html=1;exitX=0.5;exitY=0;exitDx=0;exitDy=0;entryX=0.5;entryY=1;entryDx=0;entryDy=0;" parent="1" source="WJxX19RSTMBT1OiavVBI-18" target="WJxX19RSTMBT1OiavVBI-24" edge="1">
          <mxGeometry relative="1" as="geometry" />
        </mxCell>
        <mxCell id="WJxX19RSTMBT1OiavVBI-18" value="" style="rounded=0;whiteSpace=wrap;html=1;fillColor=#d5e8d4;strokeColor=#82b366;" parent="1" vertex="1">
          <mxGeometry x="355" y="360" width="170" height="110" as="geometry" />
        </mxCell>
        <mxCell id="WJxX19RSTMBT1OiavVBI-20" style="edgeStyle=orthogonalEdgeStyle;rounded=0;orthogonalLoop=1;jettySize=auto;html=1;exitX=1;exitY=0.5;exitDx=0;exitDy=0;entryX=0;entryY=0.5;entryDx=0;entryDy=0;startArrow=classic;startFill=1;" parent="1" source="WJxX19RSTMBT1OiavVBI-7" target="WJxX19RSTMBT1OiavVBI-18" edge="1">
          <mxGeometry relative="1" as="geometry" />
        </mxCell>
        <mxCell id="WJxX19RSTMBT1OiavVBI-38" style="edgeStyle=orthogonalEdgeStyle;rounded=1;orthogonalLoop=1;jettySize=auto;html=1;exitX=0.5;exitY=1;exitDx=0;exitDy=0;entryX=0;entryY=0.5;entryDx=0;entryDy=0;entryPerimeter=0;" parent="1" source="WJxX19RSTMBT1OiavVBI-7" target="WJxX19RSTMBT1OiavVBI-37" edge="1">
          <mxGeometry relative="1" as="geometry" />
        </mxCell>
        <mxCell id="WJxX19RSTMBT1OiavVBI-39" style="edgeStyle=orthogonalEdgeStyle;rounded=1;orthogonalLoop=1;jettySize=auto;html=1;exitX=0.5;exitY=1;exitDx=0;exitDy=0;entryX=0;entryY=0.5;entryDx=0;entryDy=0;" parent="1" source="WJxX19RSTMBT1OiavVBI-7" target="WJxX19RSTMBT1OiavVBI-26" edge="1">
          <mxGeometry relative="1" as="geometry" />
        </mxCell>
        <mxCell id="WJxX19RSTMBT1OiavVBI-7" value="" style="rounded=0;whiteSpace=wrap;html=1;fillColor=#d5e8d4;strokeColor=#82b366;" parent="1" vertex="1">
          <mxGeometry x="50" y="360" width="170" height="110" as="geometry" />
        </mxCell>
        <mxCell id="WJxX19RSTMBT1OiavVBI-5" style="edgeStyle=orthogonalEdgeStyle;rounded=0;orthogonalLoop=1;jettySize=auto;html=1;exitX=0.5;exitY=1;exitDx=0;exitDy=0;" parent="1" source="WJxX19RSTMBT1OiavVBI-1" target="WJxX19RSTMBT1OiavVBI-2" edge="1">
          <mxGeometry relative="1" as="geometry" />
        </mxCell>
        <mxCell id="WJxX19RSTMBT1OiavVBI-1" value="application" style="rounded=1;whiteSpace=wrap;html=1;fillColor=#fff2cc;strokeColor=#d6b656;" parent="1" vertex="1">
          <mxGeometry x="120" y="50" width="640" height="60" as="geometry" />
        </mxCell>
        <mxCell id="WJxX19RSTMBT1OiavVBI-4" value="" style="edgeStyle=orthogonalEdgeStyle;rounded=1;orthogonalLoop=1;jettySize=auto;html=1;" parent="1" source="WJxX19RSTMBT1OiavVBI-2" target="WJxX19RSTMBT1OiavVBI-3" edge="1">
          <mxGeometry relative="1" as="geometry" />
        </mxCell>
        <mxCell id="WJxX19RSTMBT1OiavVBI-12" style="edgeStyle=orthogonalEdgeStyle;orthogonalLoop=1;jettySize=auto;html=1;entryX=0.5;entryY=0;entryDx=0;entryDy=0;rounded=1;" parent="1" source="WJxX19RSTMBT1OiavVBI-2" target="WJxX19RSTMBT1OiavVBI-7" edge="1">
          <mxGeometry relative="1" as="geometry" />
        </mxCell>
        <mxCell id="I_Kk3Ot2tyQAtWJL6iWx-3" value="cdn" style="edgeLabel;html=1;align=center;verticalAlign=middle;resizable=0;points=[];" vertex="1" connectable="0" parent="WJxX19RSTMBT1OiavVBI-12">
          <mxGeometry x="-0.1726" y="2" relative="1" as="geometry">
            <mxPoint y="-3" as="offset" />
          </mxGeometry>
        </mxCell>
        <mxCell id="WJxX19RSTMBT1OiavVBI-15" style="edgeStyle=orthogonalEdgeStyle;rounded=1;orthogonalLoop=1;jettySize=auto;html=1;exitX=1;exitY=0.5;exitDx=0;exitDy=0;entryX=0.5;entryY=0;entryDx=0;entryDy=0;" parent="1" source="WJxX19RSTMBT1OiavVBI-2" target="WJxX19RSTMBT1OiavVBI-9" edge="1">
          <mxGeometry relative="1" as="geometry" />
        </mxCell>
        <mxCell id="I_Kk3Ot2tyQAtWJL6iWx-5" value="cdn" style="edgeLabel;html=1;align=center;verticalAlign=middle;resizable=0;points=[];" vertex="1" connectable="0" parent="WJxX19RSTMBT1OiavVBI-15">
          <mxGeometry x="-0.4567" y="1" relative="1" as="geometry">
            <mxPoint as="offset" />
          </mxGeometry>
        </mxCell>
        <mxCell id="WJxX19RSTMBT1OiavVBI-2" value="nginx" style="rounded=1;whiteSpace=wrap;html=1;" parent="1" vertex="1">
          <mxGeometry x="380" y="210" width="120" height="60" as="geometry" />
        </mxCell>
        <mxCell id="WJxX19RSTMBT1OiavVBI-3" value="goaccess" style="whiteSpace=wrap;html=1;rounded=1;" parent="1" vertex="1">
          <mxGeometry x="655" y="140" width="120" height="60" as="geometry" />
        </mxCell>
        <mxCell id="WJxX19RSTMBT1OiavVBI-6" value="seckill-plus" style="rounded=1;whiteSpace=wrap;html=1;" parent="1" vertex="1">
          <mxGeometry x="70" y="390" width="120" height="60" as="geometry" />
        </mxCell>
        <mxCell id="WJxX19RSTMBT1OiavVBI-8" value="tomcat" style="text;html=1;strokeColor=none;fillColor=none;align=center;verticalAlign=middle;whiteSpace=wrap;rounded=0;" parent="1" vertex="1">
          <mxGeometry x="60" y="370" width="40" height="20" as="geometry" />
        </mxCell>
        <mxCell id="WJxX19RSTMBT1OiavVBI-21" style="edgeStyle=orthogonalEdgeStyle;rounded=0;orthogonalLoop=1;jettySize=auto;html=1;exitX=0;exitY=0.5;exitDx=0;exitDy=0;entryX=1;entryY=0.5;entryDx=0;entryDy=0;startArrow=classic;startFill=1;" parent="1" source="WJxX19RSTMBT1OiavVBI-9" target="WJxX19RSTMBT1OiavVBI-18" edge="1">
          <mxGeometry relative="1" as="geometry" />
        </mxCell>
        <mxCell id="WJxX19RSTMBT1OiavVBI-34" style="edgeStyle=orthogonalEdgeStyle;rounded=1;orthogonalLoop=1;jettySize=auto;html=1;exitX=0.5;exitY=1;exitDx=0;exitDy=0;entryX=1;entryY=0.5;entryDx=0;entryDy=0;" parent="1" source="WJxX19RSTMBT1OiavVBI-9" target="WJxX19RSTMBT1OiavVBI-26" edge="1">
          <mxGeometry relative="1" as="geometry" />
        </mxCell>
        <mxCell id="WJxX19RSTMBT1OiavVBI-40" style="edgeStyle=orthogonalEdgeStyle;rounded=1;orthogonalLoop=1;jettySize=auto;html=1;exitX=0.5;exitY=1;exitDx=0;exitDy=0;entryX=1;entryY=0.5;entryDx=0;entryDy=0;entryPerimeter=0;" parent="1" source="WJxX19RSTMBT1OiavVBI-9" target="WJxX19RSTMBT1OiavVBI-37" edge="1">
          <mxGeometry relative="1" as="geometry" />
        </mxCell>
        <mxCell id="WJxX19RSTMBT1OiavVBI-9" value="" style="rounded=0;whiteSpace=wrap;html=1;fillColor=#d5e8d4;strokeColor=#82b366;" parent="1" vertex="1">
          <mxGeometry x="630" y="360" width="170" height="110" as="geometry" />
        </mxCell>
        <mxCell id="WJxX19RSTMBT1OiavVBI-10" value="seckill-plus" style="rounded=1;whiteSpace=wrap;html=1;" parent="1" vertex="1">
          <mxGeometry x="655" y="395" width="120" height="60" as="geometry" />
        </mxCell>
        <mxCell id="WJxX19RSTMBT1OiavVBI-11" value="tomcat" style="text;html=1;strokeColor=none;fillColor=none;align=center;verticalAlign=middle;whiteSpace=wrap;rounded=0;" parent="1" vertex="1">
          <mxGeometry x="645" y="375" width="40" height="20" as="geometry" />
        </mxCell>
        <mxCell id="WJxX19RSTMBT1OiavVBI-16" value="namesrv" style="rounded=1;whiteSpace=wrap;html=1;" parent="1" vertex="1">
          <mxGeometry x="370" y="400" width="70" height="30" as="geometry" />
        </mxCell>
        <mxCell id="WJxX19RSTMBT1OiavVBI-22" value="broker" style="rounded=1;whiteSpace=wrap;html=1;" parent="1" vertex="1">
          <mxGeometry x="450" y="400" width="70" height="30" as="geometry" />
        </mxCell>
        <mxCell id="WJxX19RSTMBT1OiavVBI-24" value="&lt;a title=&quot;dev-rmqconsole&quot; class=&quot;ng-binding ng-scope&quot; href=&quot;http://101.132.45.28:9000/#/containers/6a19876e6a6150ef98e3a4e2c7f98ddf0d389a9210be89b289be32bb20b7504d&quot; style=&quot;box-sizing: border-box ; background-color: rgb(245 , 245 , 245) ; color: rgb(35 , 82 , 124) ; outline: 0px ; font-size: 13px ; font-family: &amp;#34;montserrat&amp;#34;&quot;&gt;&lt;b&gt;console&lt;/b&gt;&lt;/a&gt;" style="rounded=1;whiteSpace=wrap;html=1;" parent="1" vertex="1">
          <mxGeometry x="394.5" y="290" width="91" height="40" as="geometry" />
        </mxCell>
        <mxCell id="WJxX19RSTMBT1OiavVBI-26" value="" style="rounded=0;whiteSpace=wrap;html=1;fillColor=#d5e8d4;strokeColor=#82b366;" parent="1" vertex="1">
          <mxGeometry x="355" y="550" width="170" height="110" as="geometry" />
        </mxCell>
        <mxCell id="WJxX19RSTMBT1OiavVBI-27" value="cluster" style="text;html=1;strokeColor=none;fillColor=none;align=center;verticalAlign=middle;whiteSpace=wrap;rounded=0;" parent="1" vertex="1">
          <mxGeometry x="480" y="550" width="45" height="20" as="geometry" />
        </mxCell>
        <mxCell id="WJxX19RSTMBT1OiavVBI-28" value="redis" style="shape=cylinder3;whiteSpace=wrap;html=1;boundedLbl=1;backgroundOutline=1;size=15;fillColor=#f8cecc;strokeColor=#b85450;" parent="1" vertex="1">
          <mxGeometry x="415" y="572.5" width="50" height="65" as="geometry" />
        </mxCell>
        <mxCell id="WJxX19RSTMBT1OiavVBI-43" style="edgeStyle=orthogonalEdgeStyle;rounded=1;orthogonalLoop=1;jettySize=auto;html=1;exitX=0.145;exitY=0;exitDx=0;exitDy=4.35;exitPerimeter=0;entryX=0.376;entryY=1;entryDx=0;entryDy=0;entryPerimeter=0;" parent="1" source="WJxX19RSTMBT1OiavVBI-37" target="WJxX19RSTMBT1OiavVBI-26" edge="1">
          <mxGeometry relative="1" as="geometry" />
        </mxCell>
        <mxCell id="WJxX19RSTMBT1OiavVBI-44" style="edgeStyle=orthogonalEdgeStyle;rounded=1;orthogonalLoop=1;jettySize=auto;html=1;exitX=0.624;exitY=0.991;exitDx=0;exitDy=0;exitPerimeter=0;entryX=0.855;entryY=0;entryDx=0;entryDy=4.35;entryPerimeter=0;" parent="1" source="WJxX19RSTMBT1OiavVBI-26" target="WJxX19RSTMBT1OiavVBI-37" edge="1">
          <mxGeometry relative="1" as="geometry" />
        </mxCell>
        <mxCell id="WJxX19RSTMBT1OiavVBI-46" style="edgeStyle=orthogonalEdgeStyle;rounded=1;orthogonalLoop=1;jettySize=auto;html=1;exitX=0.5;exitY=1;exitDx=0;exitDy=0;exitPerimeter=0;entryX=0;entryY=0;entryDx=0;entryDy=52.5;entryPerimeter=0;" parent="1" source="WJxX19RSTMBT1OiavVBI-37" target="WJxX19RSTMBT1OiavVBI-45" edge="1">
          <mxGeometry relative="1" as="geometry" />
        </mxCell>
        <mxCell id="WJxX19RSTMBT1OiavVBI-37" value="mysql" style="shape=cylinder3;whiteSpace=wrap;html=1;boundedLbl=1;backgroundOutline=1;size=15;fillColor=#f8cecc;strokeColor=#b85450;" parent="1" vertex="1">
          <mxGeometry x="410" y="760" width="60" height="80" as="geometry" />
        </mxCell>
        <mxCell id="WJxX19RSTMBT1OiavVBI-45" value="slave" style="shape=cylinder3;whiteSpace=wrap;html=1;boundedLbl=1;backgroundOutline=1;size=15;fillColor=#f8cecc;strokeColor=#b85450;" parent="1" vertex="1">
          <mxGeometry x="540" y="860" width="60" height="80" as="geometry" />
        </mxCell>
        <mxCell id="WJxX19RSTMBT1OiavVBI-47" value="" style="rounded=0;whiteSpace=wrap;html=1;fillColor=#d5e8d4;strokeColor=#82b366;" parent="1" vertex="1">
          <mxGeometry x="10" y="1010" width="170" height="110" as="geometry" />
        </mxCell>
        <mxCell id="WJxX19RSTMBT1OiavVBI-48" value="redis" style="shape=cylinder3;whiteSpace=wrap;html=1;boundedLbl=1;backgroundOutline=1;size=15;fillColor=#f8cecc;strokeColor=#b85450;" parent="1" vertex="1">
          <mxGeometry x="29.5" y="1032.5" width="50" height="65" as="geometry" />
        </mxCell>
        <mxCell id="WJxX19RSTMBT1OiavVBI-49" value="" style="shape=curlyBracket;whiteSpace=wrap;html=1;rounded=1;" parent="1" vertex="1">
          <mxGeometry x="180" y="1010" width="20" height="110" as="geometry" />
        </mxCell>
        <mxCell id="WJxX19RSTMBT1OiavVBI-53" style="edgeStyle=orthogonalEdgeStyle;rounded=1;orthogonalLoop=1;jettySize=auto;html=1;exitX=0.145;exitY=1;exitDx=0;exitDy=-4.35;exitPerimeter=0;entryX=0.5;entryY=0;entryDx=0;entryDy=0;entryPerimeter=0;" parent="1" source="WJxX19RSTMBT1OiavVBI-50" target="WJxX19RSTMBT1OiavVBI-51" edge="1">
          <mxGeometry relative="1" as="geometry" />
        </mxCell>
        <mxCell id="WJxX19RSTMBT1OiavVBI-54" style="edgeStyle=orthogonalEdgeStyle;rounded=1;orthogonalLoop=1;jettySize=auto;html=1;exitX=0.855;exitY=1;exitDx=0;exitDy=-4.35;exitPerimeter=0;entryX=0.32;entryY=0.015;entryDx=0;entryDy=0;entryPerimeter=0;" parent="1" source="WJxX19RSTMBT1OiavVBI-50" target="WJxX19RSTMBT1OiavVBI-52" edge="1">
          <mxGeometry relative="1" as="geometry" />
        </mxCell>
        <mxCell id="WJxX19RSTMBT1OiavVBI-50" value="redis" style="shape=cylinder3;whiteSpace=wrap;html=1;boundedLbl=1;backgroundOutline=1;size=15;fillColor=#f8cecc;strokeColor=#b85450;" parent="1" vertex="1">
          <mxGeometry x="280" y="980" width="50" height="65" as="geometry" />
        </mxCell>
        <mxCell id="WJxX19RSTMBT1OiavVBI-51" value="redis" style="shape=cylinder3;whiteSpace=wrap;html=1;boundedLbl=1;backgroundOutline=1;size=15;fillColor=#f8cecc;strokeColor=#b85450;" parent="1" vertex="1">
          <mxGeometry x="240" y="1070" width="50" height="65" as="geometry" />
        </mxCell>
        <mxCell id="WJxX19RSTMBT1OiavVBI-52" value="redis" style="shape=cylinder3;whiteSpace=wrap;html=1;boundedLbl=1;backgroundOutline=1;size=15;fillColor=#f8cecc;strokeColor=#b85450;" parent="1" vertex="1">
          <mxGeometry x="340" y="1070" width="50" height="65" as="geometry" />
        </mxCell>
        <mxCell id="WJxX19RSTMBT1OiavVBI-56" style="edgeStyle=orthogonalEdgeStyle;rounded=1;orthogonalLoop=1;jettySize=auto;html=1;exitX=0.145;exitY=1;exitDx=0;exitDy=-4.35;exitPerimeter=0;entryX=0.5;entryY=0;entryDx=0;entryDy=0;entryPerimeter=0;" parent="1" source="WJxX19RSTMBT1OiavVBI-58" target="WJxX19RSTMBT1OiavVBI-59" edge="1">
          <mxGeometry relative="1" as="geometry" />
        </mxCell>
        <mxCell id="WJxX19RSTMBT1OiavVBI-57" style="edgeStyle=orthogonalEdgeStyle;rounded=1;orthogonalLoop=1;jettySize=auto;html=1;exitX=0.855;exitY=1;exitDx=0;exitDy=-4.35;exitPerimeter=0;entryX=0.32;entryY=0.015;entryDx=0;entryDy=0;entryPerimeter=0;" parent="1" source="WJxX19RSTMBT1OiavVBI-58" target="WJxX19RSTMBT1OiavVBI-60" edge="1">
          <mxGeometry relative="1" as="geometry" />
        </mxCell>
        <mxCell id="WJxX19RSTMBT1OiavVBI-58" value="redis" style="shape=cylinder3;whiteSpace=wrap;html=1;boundedLbl=1;backgroundOutline=1;size=15;fillColor=#f8cecc;strokeColor=#b85450;" parent="1" vertex="1">
          <mxGeometry x="520" y="980" width="50" height="65" as="geometry" />
        </mxCell>
        <mxCell id="WJxX19RSTMBT1OiavVBI-59" value="redis" style="shape=cylinder3;whiteSpace=wrap;html=1;boundedLbl=1;backgroundOutline=1;size=15;fillColor=#f8cecc;strokeColor=#b85450;" parent="1" vertex="1">
          <mxGeometry x="480" y="1070" width="50" height="65" as="geometry" />
        </mxCell>
        <mxCell id="WJxX19RSTMBT1OiavVBI-60" value="redis" style="shape=cylinder3;whiteSpace=wrap;html=1;boundedLbl=1;backgroundOutline=1;size=15;fillColor=#f8cecc;strokeColor=#b85450;" parent="1" vertex="1">
          <mxGeometry x="580" y="1070" width="50" height="65" as="geometry" />
        </mxCell>
      </root>
    </mxGraphModel>
  </diagram>
</mxfile>
